<svg xmlns="http://www.w3.org/2000/svg" viewBox="0 0 160 36"><defs><style>.cls-1{fill:#ec6c6b;}.cls-2{fill:#fff;}</style></defs><g id="レイヤー_2" data-name="レイヤー 2"><g id="レイヤー_1-2" data-name="レイヤー 1"><path class="cls-1" d="M18,35A17,17,0,0,1,18,1H142a17,17,0,0,1,0,34Z"/><path class="cls-1" d="M142,2a16,16,0,0,1,0,32H18A16,16,0,0,1,18,2H142m0-2H18A18,18,0,0,0,0,18H0A18,18,0,0,0,18,36H142a18,18,0,0,0,18-18h0A18,18,0,0,0,142,0Z"/><path class="cls-2" d="M53.69,15.23a2.54,2.54,0,0,0-.21.54,10.63,10.63,0,0,1-6.82,7.78,4.33,4.33,0,0,0-1.06-1.42,8.72,8.72,0,0,0,6.27-6.46H46.16a8.63,8.63,0,0,0-1.51.07V14.19a8.44,8.44,0,0,0,1.53.08h5.51a6.11,6.11,0,0,0,.86,0A6.78,6.78,0,0,0,51.81,13l.87-.32a7.5,7.5,0,0,1,1.07,1.89l-.48.2Zm.71-.85a8.09,8.09,0,0,0-1-1.86l.87-.33A6.62,6.62,0,0,1,55.28,14Z"/><path class="cls-2" d="M57.63,22v.84H56.08a7.25,7.25,0,0,0,.05-1V14.93a7.29,7.29,0,0,0-.05-1,9.11,9.11,0,0,0,1,0h6.81a8.37,8.37,0,0,0,1,0c0,.31,0,.55,0,1v6.86a9.48,9.48,0,0,0,.05,1H63.39V22Zm5.76-6.68H57.63v5.32h5.76Z"/><path class="cls-2" d="M75.89,15.24a2.36,2.36,0,0,0-.3.72,11.76,11.76,0,0,1-2.41,4.53,12.09,12.09,0,0,1-4.27,3,3.88,3.88,0,0,0-1-1.26A9.66,9.66,0,0,0,74,15.8l-3.61,0a11.88,11.88,0,0,1-2.81,3.09,3.2,3.2,0,0,0-1.16-1,9.45,9.45,0,0,0,3.1-3.47,4.8,4.8,0,0,0,.62-1.6l1.64.34a1.15,1.15,0,0,0-.21.36c-.09.21-.2.45-.32.69a1,1,0,0,0-.08.17l-.1.18.58,0,2.62,0c.33,0,.53,0,.63,0A7.21,7.21,0,0,0,74,13l.89-.3A7.68,7.68,0,0,1,76,14.58l-.52.19Zm.78-.86a8.89,8.89,0,0,0-1-1.86l.86-.3A7,7,0,0,1,77.56,14Z"/><path class="cls-2" d="M79.4,13.79a7.41,7.41,0,0,0-.07-1.16h1.4a7.55,7.55,0,0,0-.07,1.17v1h.39a7.22,7.22,0,0,0,1-.07v1.31a8.85,8.85,0,0,0-1-.06h-.4a9.24,9.24,0,0,0,1.73,2.41,4.38,4.38,0,0,0-.65,1.21,8.6,8.6,0,0,1-1.16-2,13.82,13.82,0,0,1,.06,1.75v3a9.2,9.2,0,0,0,.07,1.3H79.34a11,11,0,0,0,.07-1.29V20a16.2,16.2,0,0,1,.07-1.79,11.2,11.2,0,0,1-1.62,3A4.62,4.62,0,0,0,77.19,20a12.61,12.61,0,0,0,2.11-4h-.62a9.88,9.88,0,0,0-1.15.06V14.75a8.12,8.12,0,0,0,1.16.07h.71Zm7.65,8.36c0,.67-.17,1-.55,1.16a3.65,3.65,0,0,1-1.33.15c-.32,0-.42,0-1.25-.05a4,4,0,0,0-.36-1.33c.15,0,.29,0,.36.05a10.37,10.37,0,0,0,1.33.09c.4,0,.49-.06.49-.33v-5.8H83.68a12.2,12.2,0,0,0-1.34.07V14.83a9,9,0,0,0,1.33.08h2.07v-.83a9.33,9.33,0,0,0-.08-1.41h1.46a11.26,11.26,0,0,0-.07,1.42v.82h.08a7.12,7.12,0,0,0,1.17-.08v1.31a9.68,9.68,0,0,0-1.13-.05h-.12Zm-3.17-1.66a10.86,10.86,0,0,0-1.5-3l1.13-.55A11,11,0,0,1,85,19.79Z"/><path class="cls-2" d="M89,14.55a6.19,6.19,0,0,0,1,.06h2a7.23,7.23,0,0,0,1,0v1.23a6.08,6.08,0,0,0-.91,0H90a8.72,8.72,0,0,0-1,0ZM96,18.92c0,.21,0,.36,0,.57a4.56,4.56,0,0,1-.83,2.85,4.9,4.9,0,0,1-1.93,1.4,3.61,3.61,0,0,0-.43-.72c-.25,0-.42,0-.58,0H90.51v.6H89.33c0-.38.06-.81.06-1.16v-1.8a9.24,9.24,0,0,0,0-.93,3.87,3.87,0,0,0,.8,0h2a4.51,4.51,0,0,0,.72,0,4.35,4.35,0,0,0,0,.87v1.9a4,4,0,0,0,1.08-.69,3.11,3.11,0,0,0,.8-2.35,3.21,3.21,0,0,0,0-.55Zm-6.54-6a7.64,7.64,0,0,0,1,0h1.46a8,8,0,0,0,1,0V14a6.6,6.6,0,0,0-1,0H90.38a6.44,6.44,0,0,0-1,0Zm0,3.49a7.2,7.2,0,0,0,.75,0h1.9a6.49,6.49,0,0,0,.74,0v1.11a7.12,7.12,0,0,0-.74,0h-1.9a6.94,6.94,0,0,0-.75,0Zm0,1.68a7.2,7.2,0,0,0,.75,0h1.9a6.49,6.49,0,0,0,.74,0v1.11a7.29,7.29,0,0,0-.76,0H90.16a7.07,7.07,0,0,0-.75,0Zm1.1,3.88h1.22v-1.2H90.51Zm8.2-2.2V18.44H94.2v1.29H93a6.37,6.37,0,0,0,.05-.89v-.71a4.8,4.8,0,0,0-.05-.86l1.09,0h4.73a11.69,11.69,0,0,0,1.17,0c0,.24,0,.46,0,.85v.76a5.23,5.23,0,0,0,0,.86Zm-4.31-5a7.56,7.56,0,0,0-1.18.06V13.54a7.12,7.12,0,0,0,1.26.07h1.31v-.16a4.7,4.7,0,0,0-.08-.9h1.38a5.75,5.75,0,0,0-.07.92v.14h1.69a7.43,7.43,0,0,0,1.29-.07V14.8a7.63,7.63,0,0,0-1.18-.06H97v.85H98.4a7.38,7.38,0,0,0,1.14-.06v1.2a7.08,7.08,0,0,0-1.14-.06H94.6a7.23,7.23,0,0,0-1.14.06v-1.2a7.38,7.38,0,0,0,1.14.06h1.19v-.85ZM98,18.91a4,4,0,0,0-.08.85v2.31c0,.24.09.28.5.28s.49-.07.53-.28a7.9,7.9,0,0,0,.1-1.4,4.92,4.92,0,0,0,1.16.44,4.23,4.23,0,0,1-.38,2c-.22.3-.62.42-1.46.42-1.35,0-1.67-.2-1.67-1V19.76a4.06,4.06,0,0,0-.06-.85Z"/><path class="cls-2" d="M102.55,17.2a11.72,11.72,0,0,0-1.44.07V16a10.26,10.26,0,0,0,1.46.07h2.73V15h-1.8a12,12,0,0,0-1.36,0V13.77a11.57,11.57,0,0,0,1.41.07h1.75v-.21a6.19,6.19,0,0,0-.07-1.05h1.46a5.88,5.88,0,0,0-.07,1.05v.21h.87a11,11,0,0,0,1.34-.07v1A8.16,8.16,0,0,0,110.22,13l1.19.78c-.09.09-.27.29-.54.62A19.34,19.34,0,0,1,109.24,16h1.23a9.84,9.84,0,0,0,1.37-.07v1.32a12.28,12.28,0,0,0-1.49-.07h-2.58c-.45.32-.75.52-1.29.87h2.73c.58,0,.91,0,1.26,0,0,.35,0,.64,0,1.31v3a8.93,8.93,0,0,0,.08,1.36h-1.39v-.52h-4.36v.52h-1.4a10.88,10.88,0,0,0,.07-1.36V20.43c0-.19,0-.45,0-.67-.73.36-1,.47-1.9.84a4.63,4.63,0,0,0-.71-1.2,20,20,0,0,0,4.94-2.2Zm2.2,2.84h4.34v-.89h-4.34Zm0,2h4.34v-.93h-4.34Zm2.71-6a10.25,10.25,0,0,0,1.15-1c-.32,0-.52,0-1,0h-1v1Z"/><path class="cls-2" d="M123.47,14.8a1.44,1.44,0,0,0-.22.25,12.06,12.06,0,0,1-1,1.11A12.05,12.05,0,0,0,124,17a3.78,3.78,0,0,0-.62,1.2,11.94,11.94,0,0,1-2.91-1.74v.7a5.43,5.43,0,0,0-.8,0H117a5.53,5.53,0,0,0-.76,0V16.4a12.49,12.49,0,0,1-3,1.86,4.17,4.17,0,0,0-.65-1.14,9.91,9.91,0,0,0,2.25-1.18,9.81,9.81,0,0,0-1.6-1.41l.89-.79a14.57,14.57,0,0,1,1.67,1.47A6.11,6.11,0,0,0,117,14h-1.58a6.4,6.4,0,0,0-.73,0V12.83a5.18,5.18,0,0,0,1,.06h2.26a6.14,6.14,0,0,0,1-.05,3,3,0,0,0,.8,1.36,6.14,6.14,0,0,0,1-1.3l1,.66a12.16,12.16,0,0,1-1.24,1.38,6.57,6.57,0,0,0,.75.6,6.78,6.78,0,0,0,1.18-1.41Zm-7.32,7.41a4.65,4.65,0,0,0-.49-1l1.06-.39h-1.29c-.39,0-.64,0-.86,0a8.18,8.18,0,0,0,.05-.88V18.5a6.77,6.77,0,0,0-.05-.81,8.66,8.66,0,0,0,1,0h5.66a7.63,7.63,0,0,0,.93,0,6,6,0,0,0,0,.8V20a6.86,6.86,0,0,0,0,.88c-.22,0-.47,0-.86,0h-1.16l1,.36c-.19.36-.47.88-.55,1h2a7.56,7.56,0,0,0,1.18-.06v1.29a10.28,10.28,0,0,0-1.25-.06h-8.3a10.28,10.28,0,0,0-1.25.06V22.15a7.34,7.34,0,0,0,1.17.06Zm-.3-2.44h4.94v-1h-4.94Zm3.85-3.7h.3a10.66,10.66,0,0,1-1.65-1.88,10,10,0,0,1-1.66,1.88h3Zm-.47,6.14a6.86,6.86,0,0,0,.62-1.36h-3a10.23,10.23,0,0,1,.6,1.36Z"/><path class="cls-2" d="M126.38,16.62a5.53,5.53,0,0,0-.71,0V16l-.55.47a3.77,3.77,0,0,0-.55-1.14,5.51,5.51,0,0,0,2.07-2.59H128a4.75,4.75,0,0,0,1.75,2,4.6,4.6,0,0,0-.73,1.07l-.1-.08v.9a3.72,3.72,0,0,0-.7,0h-.35v.8h.48a6.61,6.61,0,0,0,.85,0v-1a7.53,7.53,0,0,0,1.15.07h3c0-.36,0-.48,0-.68H131a7.59,7.59,0,0,0-1.09.05V14.68a5.94,5.94,0,0,0,1.09.06h2.42c0-.3,0-.34,0-.66h-2.69a8.67,8.67,0,0,0-1.14.05V13a7.92,7.92,0,0,0,1.2.06h2.82a10.65,10.65,0,0,0,1.1,0c0,.27,0,.27-.07,1.16,0,.62-.1,1.68-.14,2.3h.07a7.19,7.19,0,0,0,1.15-.07v1.19a9.34,9.34,0,0,0-1.14-.06H133a5.63,5.63,0,0,0,.58,1.77,5.49,5.49,0,0,0,1.16-1.44l1,.7a13.62,13.62,0,0,1-1.6,1.7A5.82,5.82,0,0,0,136,22a5,5,0,0,0-.72,1.17,7.17,7.17,0,0,1-1.46-1.54,6.84,6.84,0,0,1-.92-1.86c0,.24.05.68.08,1.33V22.6c0,.81-.35,1.1-1.32,1.1-.27,0-.59,0-1.06-.05a3.42,3.42,0,0,0-.28-1.21,5.08,5.08,0,0,0,.94.12c.44,0,.53,0,.53-.31V21.11c-.42.34-.49.42-.85.67l-1,.7-.4.28-.38-.85v.48a27.21,27.21,0,0,1-3.22.85,7,7,0,0,0-.94.22l-.18-1.32a9,9,0,0,0,1.87-.25V18.53h-.63a9,9,0,0,0-1.17.06V17.36a9.32,9.32,0,0,0,1.19.06h.61v-.8Zm-.94,5a12,12,0,0,0-.5-2.34l.93-.29a12.6,12.6,0,0,1,.53,2.33Zm1-6.05h2.23a7.12,7.12,0,0,1-1.27-1.69,7.06,7.06,0,0,1-1.2,1.7Zm3.91,2a7.8,7.8,0,0,0-1.07,0v1a4.68,4.68,0,0,0-.93-.06h-.48v3.12c.45-.11.67-.18,1.31-.38v.26a13.05,13.05,0,0,0,2.66-1.74V17.51ZM128,20.85a9.42,9.42,0,0,0,.48-2l.91.3a10.53,10.53,0,0,1-.57,1.92Zm2.44-3a8.06,8.06,0,0,1,1,1.79l-.92.61a8.07,8.07,0,0,0-1.06-1.9Z"/><path class="cls-2" d="M24.61,26.4h14a9.49,9.49,0,0,0-14,0Z"/><path class="cls-2" d="M34.26,18.68a1,1,0,0,0-1-1.05.91.91,0,0,0-1,.92,1.12,1.12,0,0,0,1.1,1.08A.88.88,0,0,0,34.26,18.68Z"/><path class="cls-2" d="M30.48,16.25a.88.88,0,0,0-.83.91.91.91,0,0,0,.9.95.79.79,0,0,0,.77-.85A.94.94,0,0,0,30.48,16.25Z"/><path class="cls-2" d="M29.26,13.49s-.08-3.72-.09-3.89H27.86c0,.22-.08,3.81-.08,3.81v.11l-2.13.14c0,.18,0,1.13,0,1.33h.15l2,0v1.09l0,0A32.71,32.71,0,0,0,25,19.2l.87.95,1.9-2v.29s.07,3.91.08,4.14h1.31c0-1,.1-4.06.1-6.55V14.87l1.61-.13V13.46h-.31Z"/><path class="cls-2" d="M36.53,9.61H35.17c0,.23,0,3.74,0,3.74h-.33l-3,.19c0,.18,0,1,0,1.23l3.16,0h.12v1.56l0,4.55V21l-1.68,0c0,.17-.11,1.07-.13,1.26a27.06,27.06,0,0,0,3.19.28c0-1,.1-4.2.1-6.58,0-.4,0-.77,0-1.11v-.11l1.59-.12V13.33H36.61S36.53,9.83,36.53,9.61Z"/></g></g></svg>